<?xml version="1.0" standalone="no"?>
<!DOCTYPE svg PUBLIC "-//W3C//DTD SVG 20010904//EN"
 "http://www.w3.org/TR/2001/REC-SVG-20010904/DTD/svg10.dtd">
<svg version="1.0" xmlns="http://www.w3.org/2000/svg"
 width="642.000000pt" height="638.000000pt" viewBox="0 0 642.000000 638.000000"
 preserveAspectRatio="xMidYMid meet">

<g transform="translate(0.000000,638.000000) scale(0.100000,-0.100000)"
fill="#000000" stroke="none">
<path d="M2885 6275 c-236 -26 -512 -92 -755 -181 -237 -88 -584 -282 -802
-451 -584 -451 -997 -1114 -1143 -1833 -48 -236 -59 -349 -59 -635 0 -291 15
-437 70 -680 247 -1100 1079 -1989 2155 -2304 727 -212 1477 -159 2169 153
484 218 936 593 1247 1032 372 526 573 1157 573 1796 0 683 -216 1335 -620
1873 -298 397 -671 707 -1115 925 -455 224 -879 321 -1390 319 -115 -1 -264
-7 -330 -14z m651 -70 c505 -53 954 -214 1364 -487 188 -125 286 -204 444
-358 578 -564 896 -1284 923 -2095 20 -622 -156 -1238 -502 -1760 -430 -648
-1062 -1095 -1808 -1280 -1178 -292 -2417 149 -3150 1122 -324 430 -520 910
-593 1458 -24 178 -24 571 0 745 79 582 289 1081 643 1529 102 128 353 378
483 481 456 362 990 581 1570 645 160 18 461 18 626 0z"/>
<path d="M3055 6100 c-1193 -64 -2240 -878 -2608 -2025 -103 -320 -144 -621
-134 -984 12 -446 100 -804 297 -1206 211 -431 538 -817 928 -1094 403 -286
852 -458 1362 -522 154 -20 543 -17 700 5 645 89 1202 357 1653 796 176 170
281 296 407 483 241 359 400 772 467 1217 22 148 25 647 5 785 -98 654 -363
1204 -797 1654 -599 621 -1410 938 -2280 891z m438 -336 c57 -19 122 -89 138
-148 18 -65 6 -183 -25 -249 -83 -174 -315 -219 -434 -83 -42 48 -55 97 -50
197 2 63 9 96 27 133 65 132 211 195 344 150z m-707 -2 c6 -4 32 -47 57 -97
25 -49 52 -99 60 -109 15 -21 17 -12 43 151 4 24 12 47 19 53 7 6 42 10 77 8
l63 -3 -3 -55 c-1 -30 -19 -152 -40 -270 l-37 -215 -70 0 -70 0 -55 107 c-30
59 -58 108 -61 108 -3 0 -14 -48 -25 -107 l-19 -108 -77 -3 c-68 -2 -78 -1
-78 14 0 39 84 510 93 522 10 13 104 17 123 4z m1096 -52 c-1 -30 -19 -152
-40 -270 l-37 -215 -74 -3 c-41 -2 -77 1 -81 5 -7 7 70 493 84 528 5 13 20 15
78 13 l73 -3 -3 -55z m-1464 -655 c47 -20 78 -50 105 -100 18 -33 22 -56 22
-135 -1 -117 -24 -178 -94 -243 -59 -55 -103 -70 -191 -65 -58 3 -75 8 -107
34 -56 44 -93 123 -93 198 0 147 61 256 170 305 54 25 136 27 188 6z m-706
-125 c23 -71 46 -130 49 -130 4 0 44 59 89 130 l82 131 62 -3 61 -3 -3 -35
c-2 -39 -47 -328 -66 -430 l-12 -65 -67 -3 c-78 -3 -75 -9 -53 116 7 39 9 72
5 72 -4 0 -27 -31 -50 -70 -40 -67 -43 -70 -79 -70 l-38 0 -22 68 c-13 37 -26
71 -30 75 -4 5 -13 -24 -20 -65 -20 -125 -18 -123 -85 -126 -32 -2 -61 1 -66
5 -4 4 -1 49 7 98 45 285 65 411 69 423 3 8 25 12 64 12 l60 0 43 -130z m1193
119 c59 -16 119 -83 135 -149 18 -74 7 -162 -31 -237 -32 -67 -74 -107 -136
-129 -48 -17 -323 -20 -323 -3 0 9 21 142 66 419 9 52 18 98 20 102 8 12 224
9 269 -3z m571 -51 c-4 -35 -12 -68 -18 -75 -7 -9 -41 -13 -103 -13 -76 0 -94
-3 -99 -16 -11 -28 4 -34 84 -34 43 0 81 -4 84 -8 2 -4 -1 -35 -7 -67 l-12
-60 -85 -3 c-85 -3 -100 -9 -100 -44 0 -16 12 -18 105 -18 l105 0 -7 -47 c-13
-100 1 -93 -199 -93 l-177 0 7 43 c26 179 76 479 81 487 4 6 74 10 177 10
l171 0 -7 -62z m360 36 c51 -38 68 -70 72 -140 5 -80 -14 -137 -63 -184 -19
-19 -35 -40 -35 -47 0 -7 12 -37 27 -67 l27 -55 132 257 131 257 68 3 c38 2
72 -1 76 -5 9 -9 99 -480 99 -515 0 -17 -7 -19 -72 -16 -64 3 -73 5 -76 23
-10 68 -6 65 -87 65 l-75 0 -22 -45 -22 -44 -152 0 -152 0 -28 65 c-36 82 -55
82 -69 -1 l-10 -60 -75 0 c-44 0 -74 4 -74 10 23 167 80 504 88 513 8 11 39
13 137 10 110 -3 131 -6 155 -24z m975 -29 c-6 -86 -12 -94 -78 -97 l-58 -3
-28 -180 c-16 -99 -31 -186 -33 -192 -4 -14 -139 -19 -148 -5 -2 4 2 48 10 97
8 50 21 130 29 179 8 49 15 93 15 98 0 4 -24 8 -54 8 -30 0 -57 4 -60 9 -6 9
12 119 21 134 2 4 91 6 196 5 l192 -3 -4 -50z m183 20 c-2 -40 -74 -487 -80
-497 -3 -4 -36 -8 -75 -8 -67 0 -69 1 -69 25 0 14 16 121 35 239 19 118 35
223 35 233 0 34 21 44 90 41 l65 -3 -1 -30z m556 -825 c0 -20 -7 -20 -2320
-20 -2313 0 -2320 0 -2320 20 0 20 7 20 2320 20 2313 0 2320 0 2320 -20z
m-1688 -365 c102 -21 190 -68 269 -142 95 -90 94 -95 -25 -212 -105 -103 -102
-102 -165 -37 -73 77 -204 107 -312 71 -73 -25 -148 -100 -179 -180 -28 -75
-37 -202 -20 -276 40 -171 146 -264 300 -264 92 0 148 23 218 89 27 25 53 46
58 46 5 0 50 -42 101 -92 68 -68 93 -99 93 -118 0 -17 -19 -43 -65 -87 -181
-173 -461 -210 -702 -92 -265 129 -402 453 -334 787 77 369 401 584 763 507z
m1249 -17 c37 -14 88 -37 115 -53 60 -35 164 -137 164 -160 0 -16 -156 -190
-187 -208 -10 -6 -29 5 -64 38 -27 25 -75 58 -105 72 -49 22 -66 25 -133 21
-92 -6 -140 -28 -200 -93 -52 -57 -75 -108 -91 -202 -21 -128 17 -270 94 -351
55 -60 120 -86 211 -86 96 -1 151 22 219 90 25 24 51 44 59 44 21 0 197 -188
197 -210 0 -34 -118 -138 -204 -181 -253 -124 -553 -71 -739 131 -67 72 -107
140 -144 245 -26 75 -28 90 -27 245 0 152 2 171 27 245 69 208 216 357 412
418 73 23 98 26 220 22 85 -3 125 -9 176 -27z m-3743 -16 c140 -39 227 -120
258 -244 28 -107 2 -224 -67 -301 -47 -54 -49 -77 -9 -101 47 -27 108 -111
126 -173 24 -83 16 -212 -18 -278 -51 -98 -144 -162 -277 -190 -94 -20 -760
-22 -779 -3 -9 9 -12 166 -12 648 0 349 4 640 8 646 4 6 14 14 22 17 8 4 164
5 345 3 294 -3 338 -6 403 -24z m791 11 c20 -18 21 -26 23 -438 3 -404 4 -422
24 -465 83 -174 314 -156 376 29 8 25 14 167 17 454 5 356 8 419 21 427 24 15
273 13 294 -3 16 -12 17 -41 13 -452 -3 -380 -6 -448 -21 -500 -75 -259 -249
-389 -521 -389 -270 -1 -438 125 -516 385 -21 70 -23 96 -27 493 -2 230 -1
429 2 441 8 30 18 32 167 34 107 1 130 -2 148 -16z m3685 7 l26 -10 0 -643 c0
-487 -3 -646 -12 -655 -8 -8 -58 -12 -160 -12 -135 0 -148 2 -158 19 -6 13
-10 233 -10 645 0 613 0 626 20 646 18 18 33 20 144 20 69 0 136 -4 150 -10z
m-4125 -1930 c138 -70 147 -254 16 -335 -41 -25 -59 -30 -114 -30 -110 0 -191
63 -207 161 -13 84 33 170 111 205 54 25 144 25 194 -1z m476 9 c108 -29 145
-151 69 -230 l-26 -27 36 -50 c20 -27 36 -52 36 -56 0 -3 -27 -6 -59 -6 l-59
0 -32 50 c-24 37 -38 50 -56 50 -22 0 -24 -4 -24 -50 l0 -51 -57 3 -58 3 -3
175 c-1 96 0 180 2 187 7 16 173 18 231 2z m540 -8 c22 -10 46 -25 54 -34 11
-14 9 -20 -20 -44 -38 -32 -33 -32 -84 -9 -77 35 -145 -11 -145 -99 0 -56 37
-87 98 -83 l47 3 3 53 3 52 50 0 50 0 -3 -82 -3 -83 -37 -18 c-86 -42 -192
-30 -258 29 -48 43 -64 88 -58 164 5 70 37 117 100 149 55 27 147 28 203 2z
m494 -1 c138 -70 147 -254 16 -335 -94 -58 -233 -33 -290 53 -66 100 -30 227
80 285 44 23 146 22 194 -3z m536 1 c22 -10 46 -25 54 -34 11 -14 9 -20 -20
-44 -38 -32 -33 -32 -84 -9 -77 35 -145 -11 -145 -99 0 -56 37 -87 98 -83 l47
3 3 53 3 52 50 0 50 0 -3 -82 -3 -83 -37 -18 c-49 -24 -124 -32 -176 -18 -54
15 -117 71 -133 118 -24 74 -3 169 48 215 54 49 174 63 248 29z m315 -126 l0
-145 90 0 90 0 0 -45 0 -45 -145 0 -145 0 0 183 c0 101 3 187 7 190 3 4 28 7
55 7 l48 0 0 -145z m415 -45 l0 -185 -57 -3 -58 -3 0 184 c0 101 3 187 7 191
4 4 30 6 58 4 l50 -3 0 -185z m444 170 c106 -54 142 -183 77 -280 -57 -86
-193 -113 -288 -58 -52 31 -98 108 -98 165 0 41 24 100 53 132 55 60 180 80
256 41z m-2811 -561 c57 -28 62 -44 25 -81 l-30 -30 -39 21 c-21 12 -47 21
-57 21 -27 0 -75 -27 -87 -49 -17 -33 -12 -96 11 -125 19 -24 27 -27 73 -24
l51 3 3 53 3 52 50 0 49 0 0 -80 0 -80 -42 -22 c-64 -32 -168 -32 -226 2 -110
62 -131 224 -40 306 64 59 173 73 256 33z m492 -24 l0 -45 -90 0 -90 0 0 -30
0 -30 80 0 80 0 0 -40 0 -40 -80 0 -80 0 0 -30 0 -30 95 0 95 0 0 -45 0 -45
-150 0 -150 0 0 190 0 190 145 0 145 0 0 -45z m317 -49 l78 -94 3 95 3 94 52
-3 52 -3 3 -187 2 -188 -47 0 -48 0 -75 92 -75 91 -3 -91 -3 -92 -54 0 -55 0
0 183 c0 101 3 187 7 190 3 4 24 7 45 7 36 0 42 -5 115 -94z m661 61 c53 -34
82 -91 82 -157 0 -65 -18 -107 -62 -146 -99 -87 -268 -59 -329 56 -48 88 -8
213 82 259 64 32 169 27 227 -12z m314 -37 c15 -36 36 -87 48 -115 l21 -50 48
115 49 115 47 3 c26 2 51 0 55 -5 4 -4 -27 -89 -70 -188 l-77 -180 -55 -3 -55
-3 -77 178 c-42 98 -76 184 -76 191 0 9 15 12 57 10 l57 -3 28 -65z m596 58
c10 -13 162 -351 162 -362 0 -3 -26 -6 -58 -6 -57 0 -58 0 -71 35 l-12 35 -75
0 -74 0 -14 -35 c-15 -34 -17 -35 -70 -35 -31 0 -56 3 -56 7 0 4 36 89 81 190
l81 183 48 0 c26 0 52 -6 58 -12z"/>
<path d="M3335 5598 c-35 -28 -55 -75 -55 -133 0 -38 5 -52 29 -76 70 -70 163
-2 165 121 1 49 -3 63 -23 84 -31 33 -78 34 -116 4z"/>
<path d="M2278 4904 c-39 -21 -61 -69 -62 -137 -1 -53 2 -61 27 -83 64 -55
134 -7 151 104 10 68 -27 133 -76 132 -7 -1 -25 -7 -40 -16z"/>
<path d="M2747 4810 c-24 -144 -25 -140 28 -140 35 0 52 6 76 28 27 24 33 37
37 85 2 31 2 67 -2 80 -7 28 -44 47 -90 47 l-33 0 -16 -100z"/>
<path d="M3666 4898 c-3 -7 -7 -32 -10 -55 l-6 -43 38 0 c25 0 45 7 55 18 20
22 22 63 5 80 -16 16 -78 15 -82 0z"/>
<path d="M4147 4805 c-23 -49 -22 -55 14 -55 28 0 31 3 25 23 -3 12 -6 32 -6
45 0 32 -14 27 -33 -13z"/>
<path d="M933 3539 c-17 -18 -18 -210 -1 -227 15 -15 213 -16 273 -1 57 14 86
47 92 101 5 53 -11 86 -56 112 -28 16 -58 20 -165 24 -99 3 -134 1 -143 -9z"/>
<path d="M932 3027 c-9 -10 -12 -49 -10 -128 l3 -114 155 -3 c172 -3 218 5
249 45 26 32 29 117 5 151 -32 46 -69 56 -234 60 -130 4 -158 2 -168 -11z"/>
<path d="M1584 1810 c-57 -23 -74 -121 -29 -165 35 -36 97 -35 130 1 33 36 34
102 3 138 -25 29 -72 40 -104 26z"/>
<path d="M2080 1765 l0 -45 43 0 c47 0 67 13 67 45 0 32 -20 45 -67 45 l-43 0
0 -45z"/>
<path d="M3094 1810 c-57 -23 -74 -121 -29 -165 35 -36 97 -35 130 1 33 36 34
102 3 138 -25 29 -72 40 -104 26z"/>
<path d="M4804 1810 c-64 -26 -73 -133 -15 -177 22 -17 82 -16 108 2 26 18 43
71 36 108 -10 52 -80 88 -129 67z"/>
<path d="M3429 1245 c-83 -45 -48 -185 46 -185 96 0 129 141 44 185 -35 18
-56 18 -90 0z"/>
<path d="M4442 1200 c-26 -69 -26 -70 12 -70 41 0 41 1 16 55 -18 40 -18 40
-28 15z"/>
</g>
</svg>
