<?xml version="1.0" standalone="no"?>
<!DOCTYPE svg PUBLIC "-//W3C//DTD SVG 20010904//EN"
 "http://www.w3.org/TR/2001/REC-SVG-20010904/DTD/svg10.dtd">
<svg version="1.0" xmlns="http://www.w3.org/2000/svg"
 width="642.000000pt" height="237.000000pt" viewBox="0 0 642.000000 237.000000"
 preserveAspectRatio="xMidYMid meet">

<g transform="translate(0.000000,237.000000) scale(0.100000,-0.100000)"
fill="#000000" stroke="none">
<path d="M43 2293 l37 -4 2 -1147 3 -1147 2 1138 3 1137 3165 0 c2103 0 3165
3 3165 10 0 7 -1056 10 -3149 10 -1731 0 -3175 2 -3207 4 -32 2 -42 1 -21 -1z"/>
<path d="M192 1083 c1 -599 3 -1071 5 -1050 l4 37 3077 -2 3077 -3 6 -35 c4
-19 7 454 8 1053 l1 1087 -3090 0 -3090 0 2 -1087z m6168 42 l0 -1035 -3080 0
-3080 0 0 1035 0 1035 3080 0 3080 0 0 -1035z"/>
<path d="M3424 2078 c-26 -23 -56 -73 -104 -172 -90 -187 -133 -293 -126 -311
15 -41 56 -2 96 93 l22 52 74 2 c41 0 80 1 86 2 9 1 12 -16 10 -55 -2 -66 13
-88 47 -69 20 10 21 19 21 188 0 183 -10 254 -37 284 -23 26 -48 22 -89 -14z
m57 -98 c2 -169 2 -164 -17 -171 -11 -4 -42 -8 -71 -8 l-52 -1 34 74 c40 89
81 156 95 156 6 0 10 -22 11 -50z"/>
<path d="M4714 2063 c-14 -15 -53 -83 -86 -150 -33 -68 -63 -123 -68 -123 -4
0 -22 42 -40 93 -42 119 -54 137 -88 137 -15 0 -32 -4 -39 -8 -22 -14 -143
-351 -143 -399 0 -13 8 -24 22 -29 28 -8 55 23 64 74 10 54 85 264 92 257 4
-3 25 -58 47 -122 41 -116 58 -142 88 -130 17 6 94 142 129 228 12 29 38 78
57 107 27 41 33 57 25 70 -17 26 -32 25 -60 -5z"/>
<path d="M1070 2064 c-120 -25 -229 -71 -327 -137 l-51 -35 -73 59 c-39 33
-78 59 -86 59 -26 0 -27 -32 -2 -54 14 -12 44 -38 68 -58 l44 -37 -63 -68
c-141 -154 -220 -312 -255 -512 -42 -240 15 -503 154 -705 17 -24 31 -49 31
-54 0 -5 -25 -37 -56 -72 -56 -64 -65 -93 -28 -98 15 -2 37 14 78 59 l56 62
58 -55 c116 -111 271 -193 440 -235 93 -23 323 -23 414 0 194 48 352 141 487
283 l83 87 63 -63 c66 -66 97 -75 103 -31 3 18 -12 39 -63 91 l-67 67 31 54
c16 30 43 95 60 144 112 337 33 704 -209 968 l-51 56 60 48 c65 52 79 76 61
98 -21 25 -44 17 -115 -41 -56 -47 -71 -55 -84 -46 -113 81 -248 140 -373 166
-95 20 -297 20 -388 0z m377 -19 c96 -20 175 -49 261 -95 103 -56 126 -75 108
-89 -10 -9 -28 -2 -78 28 -151 92 -292 131 -473 131 -178 0 -331 -42 -462
-126 -54 -35 -77 -41 -88 -25 -19 31 211 143 365 177 78 17 285 17 367 -1z
m-299 -151 l19 -37 6 32 c4 17 14 34 22 38 31 11 36 -11 23 -93 -12 -68 -16
-79 -35 -82 -16 -2 -26 5 -39 30 l-17 33 -9 -32 c-7 -26 -14 -33 -33 -33 -14
0 -25 6 -25 13 0 16 19 125 26 150 9 30 42 20 62 -19z m220 16 c16 -16 22 -32
22 -66 0 -58 -32 -94 -85 -94 -48 0 -75 29 -75 81 0 79 86 127 138 79z m98 6
c3 -7 -1 -46 -9 -87 -12 -69 -15 -74 -40 -77 -15 -2 -27 1 -27 5 0 10 18 116
25 151 6 25 42 31 51 8z m-788 -88 c8 -8 -7 -31 -66 -93 -255 -270 -314 -673
-148 -1010 25 -49 53 -102 62 -116 11 -17 14 -34 10 -45 -7 -17 -10 -16 -32
11 -42 52 -122 226 -144 314 -81 322 7 648 243 899 54 56 57 58 75 40z m1277
-70 c254 -280 315 -693 155 -1035 -21 -46 -44 -83 -50 -83 -23 0 -20 30 9 88
83 164 111 388 73 572 -35 170 -118 331 -228 442 -29 30 -44 53 -40 63 9 25
22 18 81 -47z m-1157 -89 l16 -41 17 24 18 23 24 -23 c24 -22 25 -32 11 -99
-7 -35 -44 -31 -44 5 -1 23 -2 24 -11 10 -14 -25 -34 -22 -47 5 -10 22 -11 21
-11 -6 -1 -29 -25 -47 -42 -30 -9 9 6 146 18 166 12 19 36 3 51 -34z m237 21
c9 -10 21 -34 25 -52 l8 -33 1 30 c3 63 10 75 51 75 55 0 90 -31 90 -79 0 -42
-27 -85 -59 -94 -22 -5 -79 25 -87 48 -4 8 -10 13 -14 10 -5 -3 -20 10 -35 29
-14 19 -37 37 -50 40 -26 7 -34 31 -12 39 28 12 65 6 82 -13z m305 -5 c0 -21
-5 -25 -32 -26 -30 -1 -31 -2 -8 -8 36 -10 34 -45 -2 -49 -37 -4 -36 -22 1
-22 16 0 31 -6 34 -12 2 -7 7 15 11 50 10 88 12 92 57 92 66 0 101 -57 64
-106 -16 -21 -20 -44 -7 -44 4 0 24 34 45 75 28 57 42 75 57 75 12 0 24 -9 29
-22 8 -20 1 -31 -52 -80 -34 -31 -73 -63 -86 -70 -20 -11 -25 -10 -41 10 -18
22 -19 22 -25 2 -7 -22 -35 -26 -53 -8 -9 9 -12 9 -12 0 0 -8 -19 -12 -55 -12
-46 0 -55 3 -55 18 0 26 20 144 26 154 3 4 27 8 55 8 46 0 49 -2 49 -25z m310
15 c0 -5 -4 -10 -10 -10 -5 0 -10 5 -10 10 0 6 5 10 10 10 6 0 10 -4 10 -10z
m155 -44 c-13 -105 -19 -121 -44 -124 -24 -4 -24 -3 -17 63 5 45 3 65 -4 60
-21 -13 -9 10 17 32 44 38 55 31 48 -31z m-100 -53 c-12 -67 -15 -74 -38 -71
-29 4 -27 52 4 84 32 34 41 30 34 -13z m-749 -19 c50 -41 55 -54 20 -54 -31 0
-64 28 -72 63 -8 35 -1 34 52 -9z m664 -34 c0 -13 -28 -25 -38 -16 -3 4 0 11
8 16 20 13 30 12 30 0z m-495 -110 c4 -7 -93 -10 -284 -10 -187 0 -291 4 -291
10 0 6 101 10 284 10 179 0 287 -4 291 -10z m225 0 c0 -5 -24 -10 -54 -10 -30
0 -58 5 -61 10 -4 6 17 10 54 10 34 0 61 -4 61 -10z m630 0 c0 -6 -94 -10
-261 -10 -171 0 -258 3 -254 10 4 6 102 10 261 10 163 0 254 -4 254 -10z
m-1309 -120 c94 -18 133 -87 91 -160 l-20 -36 23 -22 c51 -49 33 -140 -35
-175 -29 -14 -57 -17 -155 -15 l-120 3 -3 195 c-1 107 0 200 2 207 7 16 139
18 217 3z m263 2 c2 -4 6 -69 7 -145 l3 -137 -34 -35 c-19 -19 -37 -35 -41
-35 -18 0 -29 75 -29 205 0 78 3 145 7 148 9 10 81 9 87 -1z m234 -4 c7 -7 12
-19 12 -27 0 -16 -88 -111 -102 -111 -10 0 -11 134 -1 143 11 12 78 8 91 -5z
m325 -2 c18 -7 42 -25 55 -38 l23 -25 -26 -32 -27 -31 -26 20 c-15 11 -52 42
-82 69 l-55 50 53 1 c29 0 67 -6 85 -14z m381 -9 c60 -34 66 -50 31 -87 -28
-29 -55 -40 -55 -21 0 16 -58 33 -90 26 -69 -15 -93 -133 -40 -190 30 -32 86
-34 123 -5 14 11 28 20 31 20 3 0 17 -16 32 -35 26 -35 26 -36 8 -56 -23 -25
-67 -49 -90 -49 -9 0 -33 17 -53 38 -20 20 -71 70 -114 111 -42 40 -77 76 -77
80 0 25 26 92 47 119 54 71 168 94 247 49z m204 -189 l2 -208 -55 0 -55 0 0
203 c0 112 3 207 7 211 4 4 28 6 53 4 l45 -3 3 -207z m-739 133 l35 -28 -22
-28 c-38 -48 -23 -161 23 -179 32 -12 83 -6 107 14 l25 19 33 -34 34 -35 -24
-25 c-85 -90 -249 -61 -307 55 -25 49 -31 138 -12 187 10 27 57 83 68 83 3 0
21 -13 40 -29z m-164 -176 c-7 -69 -31 -114 -78 -149 -22 -16 -43 -21 -92 -21
-35 0 -67 4 -72 8 -4 5 15 28 42 53 28 24 59 53 70 65 11 11 44 46 74 77 33
34 56 51 59 43 2 -7 1 -41 -3 -76z m486 -121 c31 -34 32 -35 6 -19 -23 15 -56
55 -44 55 2 0 19 -16 38 -36z m-836 -247 c20 -29 19 -53 -5 -77 -26 -26 -74
-26 -100 0 -23 23 -19 36 24 82 29 30 58 28 81 -5z m143 10 c6 -7 10 -34 9
-60 -2 -36 -6 -47 -18 -47 -9 0 -19 7 -23 15 -3 8 -10 15 -16 15 -5 0 -10 -7
-10 -15 0 -8 -9 -15 -20 -15 -18 0 -20 7 -20 60 l0 60 44 0 c24 0 48 -6 54
-13z m157 -7 c0 -10 -10 -15 -30 -15 -25 0 -30 -4 -30 -24 0 -31 25 -40 32
-12 9 35 35 26 31 -11 -3 -29 -7 -33 -36 -36 -42 -4 -72 21 -72 59 0 40 25 61
69 57 24 -2 36 -8 36 -18z m157 3 c40 -36 10 -103 -45 -103 -58 0 -88 60 -50
102 20 22 70 23 95 1z m163 -3 c0 -11 -9 -14 -31 -12 -35 3 -53 -20 -33 -44
16 -19 26 -17 32 6 8 32 37 25 37 -10 0 -24 -5 -31 -26 -36 -65 -17 -114 39
-80 91 15 22 23 26 59 23 29 -2 42 -8 42 -18z m85 -25 c0 -41 2 -45 25 -45 16
0 25 -6 25 -15 0 -11 -12 -15 -45 -15 l-45 0 0 60 c0 53 2 60 20 60 17 0 20
-7 20 -45z m130 -15 c0 -53 -2 -60 -20 -60 -18 0 -20 7 -20 60 0 53 2 60 20
60 18 0 20 -7 20 -60z m156 34 c23 -34 9 -75 -29 -88 -63 -22 -117 36 -83 89
24 36 89 36 112 -1z m204 -135 c0 -17 -155 -172 -216 -215 -81 -58 -211 -119
-309 -145 -114 -31 -345 -31 -458 -1 -157 43 -318 135 -422 241 -37 39 -46 54
-38 62 9 9 27 -2 73 -44 207 -192 481 -278 753 -236 205 32 417 152 544 308
35 42 51 55 61 48 6 -5 12 -13 12 -18z m-1096 -15 c25 -10 20 -36 -6 -34 -43
4 -49 0 -46 -22 4 -27 38 -38 38 -13 0 22 34 15 38 -7 4 -22 -41 -52 -67 -43
-32 10 -51 34 -51 62 0 49 45 76 94 57z m156 -9 c0 -9 -9 -15 -25 -15 -14 0
-25 -4 -25 -10 0 -5 12 -10 26 -10 35 0 26 -23 -12 -31 l-29 -7 33 -1 c22 -1
32 -6 32 -17 0 -12 -10 -14 -46 -12 l-47 3 1 53 c0 28 1 54 1 57 1 3 21 5 46
5 33 0 45 -4 45 -15z m95 -12 l24 -28 1 28 c0 22 4 28 18 25 13 -2 18 -15 20
-61 3 -51 1 -57 -17 -57 -11 0 -29 12 -40 26 l-21 27 0 -27 c0 -19 -5 -26 -20
-26 -18 0 -20 7 -20 60 0 69 15 78 55 33z m215 5 c25 -27 25 -49 2 -79 -13
-15 -30 -22 -52 -22 -22 0 -39 7 -52 22 -23 30 -23 42 3 75 26 33 70 35 99 4z
m92 -10 l16 -33 12 33 c8 21 19 32 31 32 23 0 23 3 -2 -64 -17 -44 -26 -56
-44 -56 -16 0 -26 12 -43 53 -27 64 -27 67 -4 67 11 0 25 -14 34 -32z m202
-24 c14 -31 26 -58 26 -60 0 -9 -31 -3 -50 8 -15 9 -24 9 -43 -1 -41 -22 -46
-9 -19 52 32 75 52 76 86 1z"/>
<path d="M1284 1846 c-7 -29 1 -46 21 -46 18 0 38 37 31 56 -9 24 -45 17 -52
-10z"/>
<path d="M1126 1647 c-14 -46 -14 -57 4 -57 17 0 30 19 30 45 0 17 -30 28 -34
12z"/>
<path d="M1405 1649 c-10 -15 3 -25 16 -12 7 7 7 13 1 17 -6 3 -14 1 -17 -5z"/>
<path d="M560 1196 c0 -35 1 -36 38 -36 46 0 76 19 70 46 -2 15 -13 20 -56 22
l-52 3 0 -35z"/>
<path d="M568 1074 c-5 -4 -8 -22 -8 -41 0 -33 0 -33 49 -33 63 0 94 25 73 58
-10 14 -103 28 -114 16z"/>
<path d="M750 684 c-11 -12 -10 -18 3 -32 16 -15 18 -15 34 0 13 14 14 20 3
32 -7 9 -16 16 -20 16 -4 0 -13 -7 -20 -16z"/>
<path d="M912 689 c2 -6 8 -10 13 -10 5 0 11 4 13 10 2 6 -4 11 -13 11 -9 0
-15 -5 -13 -11z"/>
<path d="M1217 694 c-10 -10 -9 -42 2 -48 18 -11 42 6 39 28 -3 21 -28 33 -41
20z"/>
<path d="M1740 684 c-11 -12 -10 -18 3 -32 16 -15 18 -15 34 0 13 14 14 20 3
32 -7 9 -16 16 -20 16 -4 0 -13 -7 -20 -16z"/>
<path d="M1321 516 c-15 -18 -3 -46 19 -46 10 0 21 7 24 16 6 16 -9 44 -24 44
-4 0 -13 -6 -19 -14z"/>
<path d="M3845 2049 c-22 -10 -44 -24 -49 -29 -14 -14 -26 -12 -26 4 0 20 -31
29 -45 14 -7 -7 -20 -53 -29 -103 -9 -49 -28 -130 -42 -178 -30 -101 -27 -137
11 -137 29 0 41 20 56 92 14 71 39 148 47 148 10 0 49 -105 64 -175 10 -48 17
-61 34 -63 40 -6 47 19 30 103 -9 41 -22 88 -31 105 l-15 29 41 11 c23 6 52
22 65 35 50 50 19 166 -44 165 -15 -1 -45 -10 -67 -21z m75 -68 c0 -26 -23
-42 -71 -48 -53 -8 -50 12 7 44 48 28 64 29 64 4z"/>
<path d="M4174 2058 c-19 -26 -136 -398 -131 -413 4 -8 18 -15 32 -15 30 0 26
-9 102 223 45 139 55 181 47 195 -14 22 -38 27 -50 10z"/>
<path d="M5691 2058 c-6 -7 -47 -85 -91 -173 -79 -158 -93 -208 -68 -233 28
-28 78 -1 78 41 0 12 32 86 70 164 39 78 70 153 70 166 0 40 -37 62 -59 35z"/>
<path d="M3125 2040 c-97 -9 -247 -40 -264 -56 -12 -11 -12 -16 -1 -28 7 -9
18 -16 25 -16 10 0 10 -13 -2 -59 -12 -48 -20 -61 -38 -65 -34 -9 -43 -45 -16
-67 20 -17 21 -19 7 -76 -26 -105 -26 -110 -13 -121 22 -19 34 0 59 93 l24 90
45 7 c24 3 65 7 91 7 52 1 79 20 71 51 -6 24 -5 23 -106 20 l-78 -2 7 38 c5
22 8 49 9 62 0 12 7 24 15 26 61 17 131 29 193 35 64 5 72 8 75 28 5 31 -22
39 -103 33z"/>
<path d="M4916 2013 c-13 -21 -48 -93 -77 -161 -56 -131 -58 -157 -9 -157 27
0 23 -7 94 163 59 140 66 176 40 186 -23 9 -22 9 -48 -31z"/>
<path d="M5164 2040 c-30 -12 -48 -44 -104 -185 -53 -133 -56 -165 -16 -165
32 0 38 10 81 125 20 55 40 106 44 113 9 15 61 -187 61 -234 0 -69 56 -68 91
2 20 40 47 74 196 257 48 59 52 90 12 95 -18 2 -31 -4 -41 -20 -8 -13 -46 -59
-84 -103 -38 -44 -78 -93 -90 -109 l-20 -28 -23 83 c-24 89 -59 171 -76 175
-5 2 -19 -1 -31 -6z"/>
<path d="M2525 1489 c-10 -15 3 -25 16 -12 7 7 7 13 1 17 -6 3 -14 1 -17 -5z"/>
<path d="M2570 1485 c-10 -12 -10 -15 4 -15 9 0 16 7 16 15 0 8 -2 15 -4 15
-2 0 -9 -7 -16 -15z"/>
<path d="M2610 1486 c0 -9 7 -16 16 -16 17 0 14 22 -4 28 -7 2 -12 -3 -12 -12z"/>
<path d="M2657 1493 c-12 -11 -8 -23 8 -23 8 0 15 7 15 15 0 16 -12 20 -23 8z"/>
<path d="M2700 1485 c0 -8 7 -15 16 -15 14 0 14 3 4 15 -7 8 -14 15 -16 15 -2
0 -4 -7 -4 -15z"/>
<path d="M2746 1492 c-3 -6 -1 -14 5 -17 15 -10 25 3 12 16 -7 7 -13 7 -17 1z"/>
<path d="M2836 1493 c-11 -11 -6 -23 9 -23 8 0 15 4 15 9 0 13 -16 22 -24 14z"/>
<path d="M2886 1491 c-4 -7 -5 -15 -2 -18 9 -9 19 4 14 18 -4 11 -6 11 -12 0z"/>
<path d="M2926 1492 c-3 -6 -1 -14 5 -17 15 -10 25 3 12 16 -7 7 -13 7 -17 1z"/>
<path d="M2976 1493 c-11 -11 -6 -23 9 -23 8 0 15 4 15 9 0 13 -16 22 -24 14z"/>
<path d="M3065 1489 c-10 -15 3 -25 16 -12 7 7 7 13 1 17 -6 3 -14 1 -17 -5z"/>
<path d="M3106 1485 c-3 -9 0 -15 9 -15 8 0 15 7 15 15 0 8 -4 15 -9 15 -5 0
-11 -7 -15 -15z"/>
<path d="M3150 1486 c0 -9 7 -16 16 -16 17 0 14 22 -4 28 -7 2 -12 -3 -12 -12z"/>
<path d="M3196 1493 c-11 -11 -6 -23 9 -23 8 0 15 4 15 9 0 13 -16 22 -24 14z"/>
<path d="M3286 1492 c-3 -6 -1 -14 5 -17 15 -10 25 3 12 16 -7 7 -13 7 -17 1z"/>
<path d="M3336 1493 c-11 -11 -6 -23 9 -23 8 0 15 4 15 9 0 13 -16 22 -24 14z"/>
<path d="M3380 1486 c0 -9 5 -16 10 -16 6 0 10 4 10 9 0 6 -4 13 -10 16 -5 3
-10 -1 -10 -9z"/>
<path d="M3426 1491 c-4 -7 -5 -15 -2 -18 9 -9 19 4 14 18 -4 11 -6 11 -12 0z"/>
<path d="M3466 1493 c-11 -11 -6 -23 9 -23 8 0 15 4 15 9 0 13 -16 22 -24 14z"/>
<path d="M3515 1489 c-10 -15 3 -25 16 -12 7 7 7 13 1 17 -6 3 -14 1 -17 -5z"/>
<path d="M3560 1485 c-10 -12 -10 -15 4 -15 9 0 16 7 16 15 0 8 -2 15 -4 15
-2 0 -9 -7 -16 -15z"/>
<path d="M3600 1486 c0 -9 7 -16 16 -16 17 0 14 22 -4 28 -7 2 -12 -3 -12 -12z"/>
<path d="M3647 1493 c-12 -11 -8 -23 8 -23 8 0 15 7 15 15 0 16 -12 20 -23 8z"/>
<path d="M3690 1485 c0 -8 7 -15 16 -15 14 0 14 3 4 15 -7 8 -14 15 -16 15 -2
0 -4 -7 -4 -15z"/>
<path d="M3736 1492 c-3 -6 -1 -14 5 -17 15 -10 25 3 12 16 -7 7 -13 7 -17 1z"/>
<path d="M3826 1493 c-11 -11 -6 -23 9 -23 8 0 15 4 15 9 0 13 -16 22 -24 14z"/>
<path d="M3876 1491 c-4 -7 -5 -15 -2 -18 9 -9 19 4 14 18 -4 11 -6 11 -12 0z"/>
<path d="M3916 1492 c-3 -6 -1 -14 5 -17 15 -10 25 3 12 16 -7 7 -13 7 -17 1z"/>
<path d="M3966 1493 c-11 -11 -6 -23 9 -23 8 0 15 4 15 9 0 13 -16 22 -24 14z"/>
<path d="M4055 1489 c-10 -15 3 -25 16 -12 7 7 7 13 1 17 -6 3 -14 1 -17 -5z"/>
<path d="M4100 1485 c-10 -12 -10 -15 4 -15 9 0 16 7 16 15 0 8 -2 15 -4 15
-2 0 -9 -7 -16 -15z"/>
<path d="M4140 1486 c0 -9 7 -16 16 -16 17 0 14 22 -4 28 -7 2 -12 -3 -12 -12z"/>
<path d="M4187 1493 c-12 -11 -8 -23 8 -23 8 0 15 7 15 15 0 16 -12 20 -23 8z"/>
<path d="M4230 1485 c0 -8 7 -15 16 -15 14 0 14 3 4 15 -7 8 -14 15 -16 15 -2
0 -4 -7 -4 -15z"/>
<path d="M4276 1492 c-3 -6 -1 -14 5 -17 15 -10 25 3 12 16 -7 7 -13 7 -17 1z"/>
<path d="M4326 1493 c-11 -11 -6 -23 9 -23 8 0 15 4 15 9 0 13 -16 22 -24 14z"/>
<path d="M4370 1486 c0 -9 5 -16 10 -16 6 0 10 4 10 9 0 6 -4 13 -10 16 -5 3
-10 -1 -10 -9z"/>
<path d="M4416 1491 c-4 -7 -5 -15 -2 -18 9 -9 19 4 14 18 -4 11 -6 11 -12 0z"/>
<path d="M4456 1493 c-11 -11 -6 -23 9 -23 8 0 15 4 15 9 0 13 -16 22 -24 14z"/>
<path d="M4505 1489 c-10 -15 3 -25 16 -12 7 7 7 13 1 17 -6 3 -14 1 -17 -5z"/>
<path d="M4596 1493 c-11 -11 -6 -23 9 -23 8 0 15 4 15 9 0 13 -16 22 -24 14z"/>
<path d="M4637 1493 c-12 -11 -8 -23 8 -23 8 0 15 7 15 15 0 16 -12 20 -23 8z"/>
<path d="M4680 1486 c0 -9 7 -16 16 -16 17 0 14 22 -4 28 -7 2 -12 -3 -12 -12z"/>
<path d="M4726 1492 c-3 -6 -1 -14 5 -17 15 -10 25 3 12 16 -7 7 -13 7 -17 1z"/>
<path d="M4816 1493 c-11 -11 -6 -23 9 -23 8 0 15 4 15 9 0 13 -16 22 -24 14z"/>
<path d="M4865 1489 c-10 -15 3 -25 16 -12 7 7 7 13 1 17 -6 3 -14 1 -17 -5z"/>
<path d="M4910 1486 c0 -9 5 -16 10 -16 6 0 10 4 10 9 0 6 -4 13 -10 16 -5 3
-10 -1 -10 -9z"/>
<path d="M4956 1493 c-11 -11 -6 -23 9 -23 8 0 15 4 15 9 0 13 -16 22 -24 14z"/>
<path d="M5045 1489 c-10 -15 3 -25 16 -12 7 7 7 13 1 17 -6 3 -14 1 -17 -5z"/>
<path d="M5090 1485 c-10 -12 -10 -15 4 -15 9 0 16 7 16 15 0 8 -2 15 -4 15
-2 0 -9 -7 -16 -15z"/>
<path d="M5130 1486 c0 -9 7 -16 16 -16 9 0 14 5 12 12 -6 18 -28 21 -28 4z"/>
<path d="M5177 1493 c-12 -11 -8 -23 8 -23 8 0 15 7 15 15 0 16 -12 20 -23 8z"/>
<path d="M5220 1485 c0 -8 7 -15 16 -15 14 0 14 3 4 15 -7 8 -14 15 -16 15 -2
0 -4 -7 -4 -15z"/>
<path d="M5266 1492 c-3 -6 -1 -14 5 -17 15 -10 25 3 12 16 -7 7 -13 7 -17 1z"/>
<path d="M5316 1493 c-11 -11 -6 -23 9 -23 8 0 15 4 15 9 0 13 -16 22 -24 14z"/>
<path d="M5360 1486 c0 -9 5 -16 10 -16 6 0 10 4 10 9 0 6 -4 13 -10 16 -5 3
-10 -1 -10 -9z"/>
<path d="M5406 1491 c-4 -7 -5 -15 -2 -18 9 -9 19 4 14 18 -4 11 -6 11 -12 0z"/>
<path d="M5446 1492 c-3 -6 -1 -14 5 -17 15 -10 25 3 12 16 -7 7 -13 7 -17 1z"/>
<path d="M5496 1493 c-11 -11 -6 -23 9 -23 8 0 15 4 15 9 0 13 -16 22 -24 14z"/>
<path d="M5585 1489 c-10 -15 3 -25 16 -12 7 7 7 13 1 17 -6 3 -14 1 -17 -5z"/>
<path d="M5627 1493 c-12 -11 -8 -23 8 -23 8 0 15 7 15 15 0 16 -12 20 -23 8z"/>
<path d="M5670 1486 c0 -9 7 -16 16 -16 9 0 14 5 12 12 -6 18 -28 21 -28 4z"/>
<path d="M5716 1492 c-3 -6 -1 -14 5 -17 15 -10 25 3 12 16 -7 7 -13 7 -17 1z"/>
<path d="M5806 1492 c-3 -6 -1 -14 5 -17 15 -10 25 3 12 16 -7 7 -13 7 -17 1z"/>
<path d="M5856 1493 c-11 -11 -6 -23 9 -23 8 0 15 4 15 9 0 13 -16 22 -24 14z"/>
<path d="M5900 1486 c0 -9 5 -16 10 -16 6 0 10 4 10 9 0 6 -4 13 -10 16 -5 3
-10 -1 -10 -9z"/>
<path d="M5946 1493 c-11 -11 -6 -23 9 -23 8 0 15 4 15 9 0 13 -16 22 -24 14z"/>
<path d="M6035 1489 c-10 -15 3 -25 16 -12 7 7 7 13 1 17 -6 3 -14 1 -17 -5z"/>
<path d="M6080 1485 c-10 -12 -10 -15 4 -15 9 0 16 7 16 15 0 8 -2 15 -4 15
-2 0 -9 -7 -16 -15z"/>
<path d="M6120 1486 c0 -9 7 -16 16 -16 9 0 14 5 12 12 -6 18 -28 21 -28 4z"/>
<path d="M2480 1480 c0 -5 5 -10 10 -10 6 0 10 5 10 10 0 6 -4 10 -10 10 -5 0
-10 -4 -10 -10z"/>
<path d="M2790 1480 c0 -5 7 -10 16 -10 8 0 12 5 9 10 -3 6 -10 10 -16 10 -5
0 -9 -4 -9 -10z"/>
<path d="M3015 1480 c-3 -5 1 -10 9 -10 9 0 16 5 16 10 0 6 -4 10 -9 10 -6 0
-13 -4 -16 -10z"/>
<path d="M3240 1480 c0 -5 7 -10 16 -10 8 0 12 5 9 10 -3 6 -10 10 -16 10 -5
0 -9 -4 -9 -10z"/>
<path d="M3780 1480 c0 -5 7 -10 16 -10 8 0 12 5 9 10 -3 6 -10 10 -16 10 -5
0 -9 -4 -9 -10z"/>
<path d="M4005 1480 c-3 -5 1 -10 9 -10 9 0 16 5 16 10 0 6 -4 10 -9 10 -6 0
-13 -4 -16 -10z"/>
<path d="M4545 1480 c-3 -5 1 -10 9 -10 9 0 16 5 16 10 0 6 -4 10 -9 10 -6 0
-13 -4 -16 -10z"/>
<path d="M4770 1480 c0 -5 7 -10 16 -10 8 0 12 5 9 10 -3 6 -10 10 -16 10 -5
0 -9 -4 -9 -10z"/>
<path d="M4995 1480 c-3 -5 1 -10 9 -10 9 0 16 5 16 10 0 6 -4 10 -9 10 -6 0
-13 -4 -16 -10z"/>
<path d="M5535 1480 c-3 -5 1 -10 9 -10 9 0 16 5 16 10 0 6 -4 10 -9 10 -6 0
-13 -4 -16 -10z"/>
<path d="M5760 1480 c0 -5 7 -10 16 -10 8 0 12 5 9 10 -3 6 -10 10 -16 10 -5
0 -9 -4 -9 -10z"/>
<path d="M5985 1480 c-3 -5 1 -10 9 -10 9 0 16 5 16 10 0 6 -4 10 -9 10 -6 0
-13 -4 -16 -10z"/>
<path d="M6170 1480 c0 -5 5 -10 10 -10 6 0 10 5 10 10 0 6 -4 10 -10 10 -5 0
-10 -4 -10 -10z"/>
<path d="M2480 780 c0 -5 5 -10 10 -10 6 0 10 5 10 10 0 6 -4 10 -10 10 -5 0
-10 -4 -10 -10z"/>
<path d="M2522 781 c4 -13 18 -16 19 -4 0 4 -5 9 -11 12 -7 2 -11 -2 -8 -8z"/>
<path d="M2560 786 c0 -2 7 -9 15 -16 12 -10 15 -10 15 4 0 9 -7 16 -15 16 -8
0 -15 -2 -15 -4z"/>
<path d="M2610 774 c0 -9 5 -14 12 -12 18 6 21 28 4 28 -9 0 -16 -7 -16 -16z"/>
<path d="M2652 778 c6 -18 28 -21 28 -4 0 9 -7 16 -16 16 -9 0 -14 -5 -12 -12z"/>
<path d="M2700 774 c0 -14 3 -14 15 -4 8 7 15 14 15 16 0 2 -7 4 -15 4 -8 0
-15 -7 -15 -16z"/>
<path d="M2745 781 c-6 -11 9 -23 19 -14 9 9 7 23 -3 23 -6 0 -12 -4 -16 -9z"/>
<path d="M2790 780 c0 -5 4 -10 9 -10 6 0 13 5 16 10 3 6 -1 10 -9 10 -9 0
-16 -4 -16 -10z"/>
<path d="M2832 779 c2 -6 8 -10 13 -10 5 0 11 4 13 10 2 6 -4 11 -13 11 -9 0
-15 -5 -13 -11z"/>
<path d="M2880 781 c0 -6 5 -13 10 -16 6 -3 10 1 10 9 0 9 -4 16 -10 16 -5 0
-10 -4 -10 -9z"/>
<path d="M2925 781 c-6 -11 9 -23 19 -14 9 9 7 23 -3 23 -6 0 -12 -4 -16 -9z"/>
<path d="M2972 779 c2 -6 8 -10 13 -10 5 0 11 4 13 10 2 6 -4 11 -13 11 -9 0
-15 -5 -13 -11z"/>
<path d="M3015 780 c3 -5 10 -10 16 -10 5 0 9 5 9 10 0 6 -7 10 -16 10 -8 0
-12 -4 -9 -10z"/>
<path d="M3062 781 c2 -7 7 -12 11 -12 12 1 9 15 -3 20 -7 2 -11 -2 -8 -8z"/>
<path d="M3102 778 c6 -18 28 -21 28 -4 0 9 -7 16 -16 16 -9 0 -14 -5 -12 -12z"/>
<path d="M3150 774 c0 -9 5 -14 12 -12 18 6 21 28 4 28 -9 0 -16 -7 -16 -16z"/>
<path d="M3192 778 c6 -18 28 -21 28 -4 0 9 -7 16 -16 16 -9 0 -14 -5 -12 -12z"/>
<path d="M3240 780 c0 -5 4 -10 9 -10 6 0 13 5 16 10 3 6 -1 10 -9 10 -9 0
-16 -4 -16 -10z"/>
<path d="M3282 779 c2 -6 8 -10 13 -10 5 0 11 4 13 10 2 6 -4 11 -13 11 -9 0
-15 -5 -13 -11z"/>
<path d="M3332 779 c2 -6 8 -10 13 -10 5 0 11 4 13 10 2 6 -4 11 -13 11 -9 0
-15 -5 -13 -11z"/>
<path d="M3380 774 c0 -8 5 -12 10 -9 6 3 10 10 10 16 0 5 -4 9 -10 9 -5 0
-10 -7 -10 -16z"/>
<path d="M3420 781 c0 -6 5 -13 10 -16 6 -3 10 1 10 9 0 9 -4 16 -10 16 -5 0
-10 -4 -10 -9z"/>
<path d="M3462 779 c2 -6 8 -10 13 -10 5 0 11 4 13 10 2 6 -4 11 -13 11 -9 0
-15 -5 -13 -11z"/>
<path d="M3512 781 c4 -13 18 -16 19 -4 0 4 -5 9 -11 12 -7 2 -11 -2 -8 -8z"/>
<path d="M3555 780 c3 -5 10 -10 16 -10 5 0 9 5 9 10 0 6 -7 10 -16 10 -8 0
-12 -4 -9 -10z"/>
<path d="M3600 774 c0 -9 5 -14 12 -12 18 6 21 28 4 28 -9 0 -16 -7 -16 -16z"/>
<path d="M3642 778 c6 -18 28 -21 28 -4 0 9 -7 16 -16 16 -9 0 -14 -5 -12 -12z"/>
<path d="M3690 775 c0 -8 4 -15 9 -15 5 0 11 7 15 15 3 9 0 15 -9 15 -8 0 -15
-7 -15 -15z"/>
<path d="M3735 781 c-6 -11 9 -23 19 -14 9 9 7 23 -3 23 -6 0 -12 -4 -16 -9z"/>
<path d="M3780 780 c0 -5 4 -10 9 -10 6 0 13 5 16 10 3 6 -1 10 -9 10 -9 0
-16 -4 -16 -10z"/>
<path d="M3822 779 c2 -6 8 -10 13 -10 5 0 11 4 13 10 2 6 -4 11 -13 11 -9 0
-15 -5 -13 -11z"/>
<path d="M3870 781 c0 -6 5 -13 10 -16 6 -3 10 1 10 9 0 9 -4 16 -10 16 -5 0
-10 -4 -10 -9z"/>
<path d="M3915 781 c-6 -11 9 -23 19 -14 9 9 7 23 -3 23 -6 0 -12 -4 -16 -9z"/>
<path d="M3962 779 c2 -6 8 -10 13 -10 5 0 11 4 13 10 2 6 -4 11 -13 11 -9 0
-15 -5 -13 -11z"/>
<path d="M4005 780 c3 -5 10 -10 16 -10 5 0 9 5 9 10 0 6 -7 10 -16 10 -8 0
-12 -4 -9 -10z"/>
<path d="M4052 781 c2 -7 7 -12 11 -12 12 1 9 15 -3 20 -7 2 -11 -2 -8 -8z"/>
<path d="M4096 775 c4 -8 10 -15 15 -15 5 0 9 7 9 15 0 8 -7 15 -15 15 -9 0
-12 -6 -9 -15z"/>
<path d="M4140 774 c0 -9 5 -14 12 -12 18 6 21 28 4 28 -9 0 -16 -7 -16 -16z"/>
<path d="M4182 778 c6 -18 28 -21 28 -4 0 9 -7 16 -16 16 -9 0 -14 -5 -12 -12z"/>
<path d="M4230 780 c0 -5 4 -10 9 -10 6 0 13 5 16 10 3 6 -1 10 -9 10 -9 0
-16 -4 -16 -10z"/>
<path d="M4275 781 c-6 -11 9 -23 19 -14 9 9 7 23 -3 23 -6 0 -12 -4 -16 -9z"/>
<path d="M4322 779 c2 -6 8 -10 13 -10 5 0 11 4 13 10 2 6 -4 11 -13 11 -9 0
-15 -5 -13 -11z"/>
<path d="M4370 774 c0 -8 5 -12 10 -9 6 3 10 10 10 16 0 5 -4 9 -10 9 -5 0
-10 -7 -10 -16z"/>
<path d="M4410 781 c0 -6 5 -13 10 -16 6 -3 10 1 10 9 0 9 -4 16 -10 16 -5 0
-10 -4 -10 -9z"/>
<path d="M4452 779 c2 -6 8 -10 13 -10 5 0 11 4 13 10 2 6 -4 11 -13 11 -9 0
-15 -5 -13 -11z"/>
<path d="M4502 781 c2 -7 7 -12 11 -12 12 1 9 15 -3 20 -7 2 -11 -2 -8 -8z"/>
<path d="M4545 780 c3 -5 10 -10 16 -10 5 0 9 5 9 10 0 6 -7 10 -16 10 -8 0
-12 -4 -9 -10z"/>
<path d="M4592 779 c2 -6 8 -10 13 -10 5 0 11 4 13 10 2 6 -4 11 -13 11 -9 0
-15 -5 -13 -11z"/>
<path d="M4632 778 c6 -18 28 -21 28 -4 0 9 -7 16 -16 16 -9 0 -14 -5 -12 -12z"/>
<path d="M4680 774 c0 -9 5 -14 12 -12 18 6 21 28 4 28 -9 0 -16 -7 -16 -16z"/>
<path d="M4725 781 c-6 -11 9 -23 19 -14 9 9 7 23 -3 23 -6 0 -12 -4 -16 -9z"/>
<path d="M4770 780 c0 -5 4 -10 9 -10 6 0 13 5 16 10 3 6 -1 10 -9 10 -9 0
-16 -4 -16 -10z"/>
<path d="M4812 779 c2 -6 8 -10 13 -10 5 0 11 4 13 10 2 6 -4 11 -13 11 -9 0
-15 -5 -13 -11z"/>
<path d="M4862 779 c2 -6 8 -10 13 -10 5 0 11 4 13 10 2 6 -4 11 -13 11 -9 0
-15 -5 -13 -11z"/>
<path d="M4910 774 c0 -8 5 -12 10 -9 6 3 10 10 10 16 0 5 -4 9 -10 9 -5 0
-10 -7 -10 -16z"/>
<path d="M4952 779 c2 -6 8 -10 13 -10 5 0 11 4 13 10 2 6 -4 11 -13 11 -9 0
-15 -5 -13 -11z"/>
<path d="M4995 780 c3 -5 10 -10 16 -10 5 0 9 5 9 10 0 6 -7 10 -16 10 -8 0
-12 -4 -9 -10z"/>
<path d="M5042 781 c4 -13 18 -16 19 -4 0 4 -5 9 -11 12 -7 2 -11 -2 -8 -8z"/>
<path d="M5080 786 c0 -2 7 -9 15 -16 12 -10 15 -10 15 4 0 9 -7 16 -15 16 -8
0 -15 -2 -15 -4z"/>
<path d="M5130 774 c0 -17 22 -14 28 4 2 7 -3 12 -12 12 -9 0 -16 -7 -16 -16z"/>
<path d="M5172 778 c6 -18 28 -21 28 -4 0 9 -7 16 -16 16 -9 0 -14 -5 -12 -12z"/>
<path d="M5220 780 c0 -5 4 -10 9 -10 6 0 13 5 16 10 3 6 -1 10 -9 10 -9 0
-16 -4 -16 -10z"/>
<path d="M5265 781 c-6 -11 9 -23 19 -14 9 9 7 23 -3 23 -6 0 -12 -4 -16 -9z"/>
<path d="M5312 779 c2 -6 8 -10 13 -10 5 0 11 4 13 10 2 6 -4 11 -13 11 -9 0
-15 -5 -13 -11z"/>
<path d="M5360 774 c0 -8 5 -12 10 -9 6 3 10 10 10 16 0 5 -4 9 -10 9 -5 0
-10 -7 -10 -16z"/>
<path d="M5400 781 c0 -6 5 -13 10 -16 6 -3 10 1 10 9 0 9 -4 16 -10 16 -5 0
-10 -4 -10 -9z"/>
<path d="M5445 781 c-6 -11 9 -23 19 -14 9 9 7 23 -3 23 -6 0 -12 -4 -16 -9z"/>
<path d="M5492 779 c2 -6 8 -10 13 -10 5 0 11 4 13 10 2 6 -4 11 -13 11 -9 0
-15 -5 -13 -11z"/>
<path d="M5535 780 c3 -5 10 -10 16 -10 5 0 9 5 9 10 0 6 -7 10 -16 10 -8 0
-12 -4 -9 -10z"/>
<path d="M5582 779 c2 -6 8 -10 13 -10 5 0 11 4 13 10 2 6 -4 11 -13 11 -9 0
-15 -5 -13 -11z"/>
<path d="M5622 778 c6 -18 28 -21 28 -4 0 9 -7 16 -16 16 -9 0 -14 -5 -12 -12z"/>
<path d="M5670 774 c0 -17 22 -14 28 4 2 7 -3 12 -12 12 -9 0 -16 -7 -16 -16z"/>
<path d="M5715 781 c-6 -11 9 -23 19 -14 9 9 7 23 -3 23 -6 0 -12 -4 -16 -9z"/>
<path d="M5760 780 c0 -5 4 -10 9 -10 6 0 13 5 16 10 3 6 -1 10 -9 10 -9 0
-16 -4 -16 -10z"/>
<path d="M5805 781 c-6 -11 9 -23 19 -14 9 9 7 23 -3 23 -6 0 -12 -4 -16 -9z"/>
<path d="M5852 779 c2 -6 8 -10 13 -10 5 0 11 4 13 10 2 6 -4 11 -13 11 -9 0
-15 -5 -13 -11z"/>
<path d="M5900 774 c0 -8 5 -12 10 -9 6 3 10 10 10 16 0 5 -4 9 -10 9 -5 0
-10 -7 -10 -16z"/>
<path d="M5942 779 c2 -6 8 -10 13 -10 5 0 11 4 13 10 2 6 -4 11 -13 11 -9 0
-15 -5 -13 -11z"/>
<path d="M5985 780 c3 -5 10 -10 16 -10 5 0 9 5 9 10 0 6 -7 10 -16 10 -8 0
-12 -4 -9 -10z"/>
<path d="M6032 781 c4 -13 18 -16 19 -4 0 4 -5 9 -11 12 -7 2 -11 -2 -8 -8z"/>
<path d="M6070 786 c0 -2 7 -9 15 -16 12 -10 15 -10 15 4 0 9 -7 16 -15 16 -8
0 -15 -2 -15 -4z"/>
<path d="M6120 774 c0 -17 22 -14 28 4 2 7 -3 12 -12 12 -9 0 -16 -7 -16 -16z"/>
<path d="M6170 780 c0 -5 5 -10 10 -10 6 0 10 5 10 10 0 6 -4 10 -10 10 -5 0
-10 -4 -10 -10z"/>
</g>
</svg>
